Coordinates
version=1
nRows=29
nColumns=24
inDegrees=yes

Units are S.I. units (second, meters, Newtons, ...)
Angles are in degrees.

endheader
time	pelvis_tilt	pelvis_list	pelvis_rotation	pelvis_tx	pelvis_ty	pelvis_tz	hip_flexion_r	hip_adduction_r	hip_rotation_r	knee_angle_r	ankle_angle_r	subtalar_angle_r	mtp_angle_r	hip_flexion_l	hip_adduction_l	hip_rotation_l	knee_angle_l	ankle_angle_l	subtalar_angle_l	mtp_angle_l	lumbar_extension	lumbar_bending	lumbar_rotation
      0.63800000	     -4.07613793	      4.54750879	      4.27181320	     -0.82365103	      0.96528244	      0.30625970	     33.33709501	     -5.13775611	     -4.34994307	     -7.68659595	      9.19372479	     -7.10855322	      0.48992328	    -15.61582813	      6.60168534	      5.86858904	     -7.28012794	      7.66259482	    -11.02825108	      0.74295264	      1.56775893	     -1.98890605	     -0.88228334
      0.64216667	     -4.09580696	      4.47259763	      4.32471874	     -0.81741085	      0.96469343	      0.30671888	     33.35377353	     -5.06128114	     -4.22769308	     -8.19216174	      9.07820734	     -7.28196588	      3.22831738	    -15.73223706	      6.46511566	      5.70957736	     -7.69432821	      7.45124351	    -10.94965600	      4.95825131	      1.66508252	     -1.90592587	     -0.90427779
      0.64633333	     -4.11257756	      4.38976545	      4.36606547	     -0.81110120	      0.96413193	      0.30717664	     33.35729186	     -4.96978368	     -4.11274481	     -8.70809455	      8.93975831	     -7.34223044	      3.23462541	    -15.86723355	      6.33157946	      5.63102799	     -8.09011647	      7.24522774	    -10.98238095	      4.96068593	      1.76777991	     -1.80707135	     -0.93683132
      0.65050000	     -4.21435064	      4.30686660	      4.41786714	     -0.80477377	      0.96348429	      0.30766829	     33.41363627	     -4.86583685	     -3.86992411	     -9.17133017	      8.75634854	     -7.68840230	      3.28015655	    -15.86703094	      6.20086523	      5.50742447	     -8.57039431	      7.04759634	    -10.94845416	      5.03355606	      1.99208554	     -1.70841442	     -1.05039454
      0.65466667	     -4.26225699	      4.19006694	      4.44660486	     -0.79832561	      0.96293583	      0.30816837	     33.39837599	     -4.72005773	     -3.70189956	     -9.62767953	      8.52643586	     -7.89706395	      3.31581128	    -15.95102252	      6.03554774	      5.38224733	     -8.99117967	      6.74984835	    -10.95512994	      5.10825681	      2.16292988	     -1.55944036	     -1.07972749
      0.65883333	     -4.28146662	      4.08212725	      4.48052649	     -0.79186485	      0.96243484	      0.30865294	     33.36806226	     -4.59088953	     -3.62687701	    -10.13604368	      8.31679744	     -8.00957602	      3.32727076	    -16.03887422	      5.87985493	      5.25797162	     -9.46386826	      6.49397478	    -11.02025857	      5.13832061	      2.27660108	     -1.44397267	     -1.09441055
      0.66300000	     -4.41074767	      3.95438576	      4.51759937	     -0.78538307	      0.96184582	      0.30919643	     33.38592657	     -4.41720697	     -3.35292812	    -10.50572609	      7.89268662	     -8.56319221	      3.41733904	    -15.96771816	      5.70931929	      5.10454926	    -10.01316556	      6.21927690	    -11.02274339	      5.38920032	      2.55898332	     -1.29108874	     -1.15050033
      0.66716667	     -4.41077202	      3.77721638	      4.51550017	     -0.77875679	      0.96144304	      0.30977773	     33.26469928	     -4.18147877	     -3.21366731	    -10.88919245	      7.48232797	     -8.89756429	      4.47770678	    -16.05685685	      5.47502235	      4.84513289	    -10.50135126	      5.83311489	    -10.96627047	      8.26471272	      2.68707220	     -1.07257875	     -1.11530209
      0.67133333	     -4.54438243	      3.63402741	      4.53603440	     -0.77214851	      0.96089406	      0.31027808	     33.31955584	     -4.00784797	     -3.14859224	    -11.35199182	      7.12730621	     -8.99955382	      4.49013946	    -15.98176565	      5.30146909	      4.72373364	    -11.03736680	      5.43537090	    -11.10835965	      8.29693713	      2.98292585	     -0.89225439	     -1.13789607
      0.67550000	     -4.65909028	      3.48192438	      4.54540717	     -0.76551254	      0.96041237	      0.31081449	     33.33745884	     -3.81360691	     -3.07215816	    -11.78185755	      6.68001940	     -9.19016955	      4.50991560	    -15.90297015	      5.11687972	      4.56341079	    -11.61316719	      5.01140183	    -11.21618830	      8.36093812	      3.25365898	     -0.71076301	     -1.14470582
      0.67966667	     -4.77308472	      3.31573042	      4.54290519	     -0.75884799	      0.95996923	      0.31137230	     33.34650475	     -3.59729217	     -2.99224226	    -12.20070328	      6.20635666	     -9.41638534	      4.53812372	    -15.80904372	      4.91878465	      4.38039772	    -12.21369333	      4.55815011	    -11.31423170	      8.45885575	      3.53128125	     -0.50895417	     -1.13251342
      0.68383333	     -4.88329646	      3.13996110	      4.52552067	     -0.75214214	      0.95957228	      0.31194473	     33.35163136	     -3.36705301	     -2.94266205	    -12.62412341	      5.72558368	     -9.62532381	      4.56871953	    -15.69757249	      4.71222816	      4.15408252	    -12.84451936	      4.06699539	    -11.40187065	      8.57108050	      3.82311443	     -0.28541977	     -1.10805061
      0.68800000	     -5.01742412	      2.96233931	      4.51129461	     -0.74549913	      0.95919187	      0.31257906	     33.36707998	     -3.12214840	     -2.81699068	    -13.01026664	      5.16359470	    -10.04078805	      4.65041409	    -15.50611347	      4.49969647	      3.90665076	    -13.57350526	      3.60889176	    -11.48677717	      8.86955367	      4.11204144	     -0.10517691	     -1.05781697
      0.69216667	     -5.13685873	      2.76468555	      4.46455367	     -0.73878562	      0.95886634	      0.31322241	     33.38660987	     -2.85292722	     -2.75794058	    -13.44306047	      4.65541558	    -10.29865565	      4.75429272	    -15.33633170	      4.27161688	      3.62797958	    -14.27840158	      3.06069758	    -11.55652268	      9.25103751	      4.40417466	      0.13699641	     -0.99643882
      0.69633333	     -5.23271803	      2.54970471	      4.39769305	     -0.73200261	      0.95862061	      0.31386155	     33.40182668	     -2.56966076	     -2.77640075	    -13.93518355	      4.27482990	    -10.36429456	      4.79438259	    -15.20588222	      4.02936093	      3.36747063	    -14.94135722	      2.41810535	    -11.63454148	      9.40446123	      4.67895694	      0.42735364	     -0.95392387
      0.70050000	     -5.34972322	      2.32247499	      4.33881059	     -0.72530168	      0.95838947	      0.31457871	     33.42849088	     -2.26464890	     -2.73931860	    -14.39253183	      3.78235219	    -10.71089249	      6.11958709	    -14.97479799	      3.75570039	      3.01655339	    -15.73975267	      1.79673531	    -11.71493850	     14.54841077	      4.96371029	      0.69059967	     -0.87885371
      0.70466667	     -5.43819121	      2.12592062	      4.23775557	     -0.71858245	      0.95822962	      0.31529445	     33.46235087	     -1.98347537	     -2.73344455	    -14.93102875	      3.41202506	    -10.73015256	      6.12291693	    -14.79567254	      3.53273992	      2.71616729	    -16.49533065	      1.07649055	    -11.81171175	     14.55751037	      5.21205356	      0.94083545	     -0.81056648
      0.70883333	     -5.54665932	      1.91869557	      4.13651207	     -0.71188591	      0.95811294	      0.31603148	     33.51705071	     -1.69142757	     -2.72380150	    -15.47215602	      3.05545060	    -10.80023596	      6.12725033	    -14.55439302	      3.29519656	      2.40807942	    -17.31119479	      0.36121993	    -11.90526588	     14.58744432	      5.48857738	      1.20488623	     -0.72040574
      0.71300000	     -5.68588616	      1.72171630	      4.02574319	     -0.70528339	      0.95797621	      0.31684113	     33.62253867	     -1.39572880	     -2.65754178	    -16.04533812	      2.71029823	    -11.05188207	      6.14299927	    -14.22586185	      3.06288347	      2.07463647	    -18.22853006	     -0.30767194	    -11.95444240	     14.72808986	      5.78666616	      1.43090251	     -0.55743715
      0.71716667	     -5.76605132	      1.50628507	      3.89712022	     -0.69865621	      0.95798994	      0.31767183	     33.65456601	     -1.07483063	     -2.60147850	    -16.60618052	      2.46984156	    -11.11797227	      6.15339450	    -13.94694083	      2.80396934	      1.71685492	    -19.14633386	     -1.08803833	    -12.01872175	     14.84751417	      6.01624164	      1.69902240	     -0.46291261
      0.72133333	     -5.84028222	      1.29666859	      3.75521934	     -0.69208063	      0.95803509	      0.31853068	     33.70464255	     -0.75565511	     -2.55484565	    -17.21931571	      2.28223636	    -11.20874934	      6.16111655	    -13.64814076	      2.54916171	      1.36991332	    -20.10618696	     -1.88346962	    -12.07937549	     14.99627962	      6.22949168	      1.96145809	     -0.34215861
      0.72550000	     -5.90415056	      1.09226794	      3.60435221	     -0.68555346	      0.95814508	      0.31942461	     33.74928985	     -0.43534554	     -2.49905898	    -17.84644687	      2.15315358	    -11.27935101	      6.16474468	    -13.33050094	      2.29458172	      1.02781125	    -21.10239973	     -2.70373739	    -12.13388790	     15.15279914	      6.42344174	      2.21620742	     -0.22467412
      0.72966667	     -5.96293216	      0.88959061	      3.44855667	     -0.67907390	      0.95830183	      0.32035600	     33.79164092	     -0.11151131	     -2.43475690	    -18.48339997	      2.07199673	    -11.35345933	      6.16284867	    -12.98555324	      2.03305740	      0.68254793	    -22.14542828	     -3.54564134	    -12.18067599	     15.32079570	      6.60354536	      2.46646033	     -0.10811029
      0.73383333	     -6.00212644	      0.69337397	      3.28515358	     -0.67266717	      0.95851912	      0.32130473	     33.81509132	      0.21126696	     -2.35730479	    -19.12394170	      2.04017097	    -11.41400905	      6.15454119	    -12.62279566	      1.77246722	      0.33978906	    -23.24203670	     -4.42375201	    -12.22450226	     15.50297879	      6.74665662	      2.71156499	      0.01135850
      0.73800000	     -5.99384795	      0.49485194	      3.12006306	     -0.66629226	      0.95884120	      0.32225840	     33.79053959	      0.53375724	     -2.32380985	    -19.77550873	      2.04049085	    -11.41089895	      6.15001677	    -12.29436856	      1.50476110	      0.03550960	    -24.34536097	     -5.34366085	    -12.27146141	     15.58220474	      6.82205882	      2.97130933	      0.08667502
      0.74216667	     -6.00084786	      0.30403387	      2.95522014	     -0.66001512	      0.95917143	      0.32324710	     33.76822919	      0.85655177	     -2.24554231	    -20.39369220	      2.08105558	    -11.42432143	      6.14228999	    -11.89658910	      1.23462132	     -0.28109489	    -25.53028370	     -6.26885891	    -12.31821801	     15.66413430	      6.90923563	      3.20777764	      0.18159704
      0.74633333	     -6.04702637	      0.14378757	      2.80881600	     -0.65387171	      0.95947680	      0.32425956	     33.78232049	      1.15117432	     -2.12733159	    -20.99744229	      2.13268674	    -11.62115174	      6.07165292	    -11.40111804	      0.98892835	     -0.54509427	    -26.79360072	     -7.20463349	    -12.35949962	     16.04715681	      7.03899533	      3.37411042	      0.36954270
      0.75050000	     -6.00886856	     -0.04147741	      2.63587112	     -0.64774759	      0.95990735	      0.32528533	     33.68922289	      1.48014462	     -2.03488031	    -21.56325249	      2.22896945	    -11.55426527	      6.05220083	    -10.98181253	      0.71256851	     -0.84013621	    -28.06666795	     -8.14428440	    -12.44551365	     16.13715105	      7.05315730	      3.60572239	      0.40996128
      0.75466667	     -5.98197950	     -0.20775658	      2.48311282	     -0.64172703	      0.96034697	      0.32629485	     33.59959452	      1.78195650	     -1.95031823	    -22.11117873	      2.33137438	    -11.54760710	      6.02979388	    -10.50958198	      0.45179313	     -1.07594647	    -29.38585328	     -9.10645165	    -12.51690923	     16.20369148	      7.06805989	      3.80175037	      0.48295138
